<?xml version="1.0" encoding="utf-8"?>
<!-- Generator: Adobe Illustrator 24.0.3, SVG Export Plug-In . SVG Version: 6.00 Build 0)  -->
<svg version="1.1" id="レイヤー_1" xmlns="http://www.w3.org/2000/svg" xmlns:xlink="http://www.w3.org/1999/xlink" x="0px"
	 y="0px" viewBox="0 0 187 53" style="enable-background:new 0 0 187 53;" xml:space="preserve">
<style type="text/css">
	.st0{fill:#FFFFFF;}
</style>
<title>page dots left</title>
<g id="Magic-Sky-UI-v2">
	<g id="Tutorial" transform="translate(-524.000000, -2318.000000)">
		<g id="intro-tutorial-1">
			<g id="page-dots-left" transform="translate(526.000000, 2320.000000)">
				<path id="Shape" class="st0" d="M92.5,49C79,49,68,38,68,24.5S79,0,92.5,0S117,11,117,24.5S106,49,92.5,49z M92.5,3.8
					c-11.4,0-20.7,9.3-20.7,20.7s9.3,20.7,20.7,20.7s20.7-9.3,20.7-20.7S103.9,3.8,92.5,3.8z"/>
				<path id="Shape_1_" class="st0" d="M160.5,49C147,49,136,38,136,24.5S147,0,160.5,0S185,11,185,24.5S174,49,160.5,49z
					 M160.5,3.8c-11.4,0-20.7,9.3-20.7,20.7s9.3,20.7,20.7,20.7s20.7-9.3,20.7-20.7S171.9,3.8,160.5,3.8z"/>
				<g id="Shape_2_">
					<g>
						<path id="path-1" class="st0" d="M24.5,49C11,49,0,38,0,24.5S11,0,24.5,0S49,11,49,24.5S38,49,24.5,49z M24.5,3.8
							c-11.4,0-20.7,9.3-20.7,20.7s9.3,20.7,20.7,20.7s20.7-9.3,20.7-20.7S35.9,3.8,24.5,3.8z"/>
					</g>
					<g>
						<path class="st0" d="M24.5,49.5c-13.8,0-25-11.2-25-25s11.2-25,25-25s25,11.2,25,25S38.3,49.5,24.5,49.5z M24.5,0.5
							c-13.2,0-24,10.8-24,24s10.8,24,24,24s24-10.8,24-24S37.7,0.5,24.5,0.5z M24.5,45.7c-11.7,0-21.2-9.5-21.2-21.2
							c0-11.7,9.5-21.2,21.2-21.2s21.2,9.5,21.2,21.2C45.7,36.2,36.2,45.7,24.5,45.7z M24.5,4.3c-11.2,0-20.2,9.1-20.2,20.2
							s9.1,20.2,20.2,20.2s20.2-9.1,20.2-20.2S35.7,4.3,24.5,4.3z"/>
					</g>
					<g>
						<path class="st0" d="M24.5,51C9.9,51-2,39.1-2,24.5S9.9-2,24.5-2S51,9.9,51,24.5S39.1,51,24.5,51z M24.5,5.8
							c-10.3,0-18.7,8.4-18.7,18.7s8.4,18.7,18.7,18.7s18.7-8.4,18.7-18.7S34.8,5.8,24.5,5.8z"/>
					</g>
				</g>
			</g>
		</g>
	</g>
</g>
</svg>
