<?xml version="1.0" encoding="UTF-8"?>
<svg width="187px" height="53px" viewBox="0 0 187 53" version="1.1" xmlns="http://www.w3.org/2000/svg" xmlns:xlink="http://www.w3.org/1999/xlink">
    <title>page dots left</title>
    <g id="Magic-Sky-UI-v2" stroke="none" stroke-width="1" fill="none" fill-rule="evenodd">
        <g id="Tutorial" transform="translate(-543.000000, -8140.000000)" fill="#FFFFFF" fill-rule="nonzero">
            <g id="intro-tutorial-3" transform="translate(0.000000, 5798.000000)">
                <g id="page-dots-left" transform="translate(543.000000, 2344.000000)">
                    <path d="M92.5,49 C78.9907,49 68,38.0093 68,24.5 C68,10.9907 78.9907,0 92.5,0 C106.0093,0 117,10.9907 117,24.5 C117,38.0093 106.0093,49 92.5,49 Z M92.5,3.76923077 C81.0690538,3.76923077 71.7692308,13.0690538 71.7692308,24.5 C71.7692308,35.9309462 81.0690538,45.2307692 92.5,45.2307692 C103.930946,45.2307692 113.230769,35.9309462 113.230769,24.5 C113.230769,13.0690538 103.930946,3.76923077 92.5,3.76923077 Z" id="Shape"></path>
                    <path d="M160.5,49 C146.9907,49 136,38.0093 136,24.5 C136,10.9907 146.9907,0 160.5,0 C174.0093,0 185,10.9907 185,24.5 C185,38.0093 174.0093,49 160.5,49 Z M160.5,3.76923077 C149.069054,3.76923077 139.769231,13.0690538 139.769231,24.5 C139.769231,35.9309462 149.069054,45.2307692 160.5,45.2307692 C171.930946,45.2307692 181.230769,35.9309462 181.230769,24.5 C181.230769,13.0690538 171.930946,3.76923077 160.5,3.76923077 Z" id="Shape" stroke="#FFFFFF" stroke-width="4"></path>
                    <path d="M24.5,49 C10.9907,49 0,38.0093 0,24.5 C0,10.9907 10.9907,0 24.5,0 C38.0093,0 49,10.9907 49,24.5 C49,38.0093 38.0093,49 24.5,49 Z M24.5,3.76923077 C13.0690538,3.76923077 3.76923077,13.0690538 3.76923077,24.5 C3.76923077,35.9309462 13.0690538,45.2307692 24.5,45.2307692 C35.9309462,45.2307692 45.2307692,35.9309462 45.2307692,24.5 C45.2307692,13.0690538 35.9309462,3.76923077 24.5,3.76923077 Z" id="Shape"></path>
                </g>
            </g>
        </g>
    </g>
</svg>