<?xml version="1.0" encoding="utf-8"?>
<!-- Generator: Adobe Illustrator 24.0.3, SVG Export Plug-In . SVG Version: 6.00 Build 0)  -->
<svg version="1.1" id="レイヤー_1" xmlns="http://www.w3.org/2000/svg" xmlns:xlink="http://www.w3.org/1999/xlink" x="0px"
	 y="0px" viewBox="0 0 122 122" style="enable-background:new 0 0 122 122;" xml:space="preserve">
<style type="text/css">
	.st0{fill:#FFFFFF;stroke:#000000;stroke-width:0.15;}
	.st1{enable-background:new    ;}
	.st2{fill:#FFFFFE;}
	.st3{fill:none;stroke:#000000;stroke-width:0.15;}
</style>
<title>search icon</title>
<g id="Magic-Sky-UI-v2">
	<g id="sky-selection-1" transform="translate(-171.000000, -2323.000000)">
		<g id="bottom-icons" transform="translate(181.000000, 2332.000000)">
			<g id="search-icon" transform="translate(0.000000, 1.000000)">
				<path id="Shape" class="st0" d="M78.6,73.8c7-8.1,10.8-18.3,10.8-29.1c0-11.9-4.7-23.2-13.1-31.6S56.6,0,44.7,0
					S21.5,4.7,13.1,13.1S0,32.8,0,44.7s4.7,23.2,13.1,31.6s19.7,13.1,31.6,13.1c10.8,0,21-3.8,29.1-10.8L96.2,101
					c0.7,0.7,1.5,1,2.4,1s1.7-0.3,2.4-1c1.3-1.3,1.3-3.5,0-4.8L78.6,73.8z M71.5,71.5c-7.2,7.2-16.7,11.1-26.8,11.1
					s-19.6-3.9-26.8-11.1S6.8,54.8,6.8,44.7s3.9-19.6,11.1-26.8S34.6,6.8,44.7,6.8s19.6,3.9,26.8,11.1s11.1,16.7,11.1,26.8
					S78.7,64.3,71.5,71.5z"/>
				<g class="st1">
					<path class="st2" d="M36.4,31.2c2.3,1.4,3.4,3.8,3.3,7.3h-3.6c0-1.9-0.6-3.4-1.8-4.2c-1.2-0.9-2.8-1.3-4.9-1.3
						c-2.5,0-4.7,0.9-6.8,2.8c-2.1,1.8-3.5,4.6-4.3,8.2c-0.7,3.2-0.5,5.7,0.4,7.7c1,2,3,3,6.2,3c2.4,0,4.5-0.7,6.4-2.1
						c1.9-1.4,3.1-3.6,3.8-6.7h-8.3l0.7-3h11.7l-3,14.2h-2.3l-0.1-3.4c-1.5,1.3-2.8,2.3-3.8,2.8c-1.8,0.9-3.9,1.3-6.3,1.3
						c-3.1,0-5.6-1-7.5-3.1c-1.9-2.6-2.4-6.1-1.5-10.5c0.9-4.4,2.9-8,5.9-10.6c2.8-2.5,6-3.8,9.7-3.8C32.7,29.8,34.8,30.3,36.4,31.2
						z"/>
					<path class="st2" d="M48.2,30.5h3.6L46.2,57h-3.6L48.2,30.5z"/>
					<path class="st2" d="M58,30.5h18.4l-0.7,3.3H60.9l-1.7,8.1h13l-0.7,3.2h-13L56,57h-3.6L58,30.5z"/>
				</g>
				<g class="st1">
					<path class="st3" d="M36.4,31.2c2.3,1.4,3.4,3.8,3.3,7.3h-3.6c0-1.9-0.6-3.4-1.8-4.2c-1.2-0.9-2.8-1.3-4.9-1.3
						c-2.5,0-4.7,0.9-6.8,2.8c-2.1,1.8-3.5,4.6-4.3,8.2c-0.7,3.2-0.5,5.7,0.4,7.7c1,2,3,3,6.2,3c2.4,0,4.5-0.7,6.4-2.1
						c1.9-1.4,3.1-3.6,3.8-6.7h-8.3l0.7-3h11.7l-3,14.2h-2.3l-0.1-3.4c-1.5,1.3-2.8,2.3-3.8,2.8c-1.8,0.9-3.9,1.3-6.3,1.3
						c-3.1,0-5.6-1-7.5-3.1c-1.9-2.6-2.4-6.1-1.5-10.5c0.9-4.4,2.9-8,5.9-10.6c2.8-2.5,6-3.8,9.7-3.8C32.7,29.8,34.8,30.3,36.4,31.2
						z"/>
					<path class="st3" d="M48.2,30.5h3.6L46.2,57h-3.6L48.2,30.5z"/>
					<path class="st3" d="M58,30.5h18.4l-0.7,3.3H60.9l-1.7,8.1h13l-0.7,3.2h-13L56,57h-3.6L58,30.5z"/>
				</g>
			</g>
		</g>
	</g>
</g>
</svg>
