<?xml version="1.0" encoding="UTF-8"?>
<svg width="122px" height="122px" viewBox="0 0 122 122" version="1.1" xmlns="http://www.w3.org/2000/svg" xmlns:xlink="http://www.w3.org/1999/xlink">
    <title>search icon</title>
    <defs>
        <filter x="-1.5%" y="-12.6%" width="103.0%" height="126.2%" filterUnits="objectBoundingBox" id="filter-1">
            <feOffset dx="0" dy="2" in="SourceAlpha" result="shadowOffsetOuter1"></feOffset>
            <feGaussianBlur stdDeviation="2" in="shadowOffsetOuter1" result="shadowBlurOuter1"></feGaussianBlur>
            <feColorMatrix values="0 0 0 0 0   0 0 0 0 0   0 0 0 0 0  0 0 0 0.5 0" type="matrix" in="shadowBlurOuter1" result="shadowMatrixOuter1"></feColorMatrix>
            <feMerge>
                <feMergeNode in="shadowMatrixOuter1"></feMergeNode>
                <feMergeNode in="SourceGraphic"></feMergeNode>
            </feMerge>
        </filter>
    </defs>
    <g id="Magic-Sky-UI-v2" stroke="none" stroke-width="1" fill="none" fill-rule="evenodd">
        <g id="sky-selection-1" transform="translate(-171.000000, -2323.000000)" stroke="#000000" stroke-width="0.15">
            <g id="bottom-icons" filter="url(#filter-1)" transform="translate(181.000000, 2332.000000)">
                <g id="search-icon" transform="translate(0.000000, 1.000000)">
                    <path d="M78.608,73.8004 C85.5802667,65.7016 89.3950667,55.4959333 89.3950667,44.6986667 C89.3950667,32.759 84.745,21.5356 76.3028,13.0922667 C67.8617333,4.65006667 56.6372,0 44.6975333,0 C32.7578667,0 21.5344667,4.65006667 13.0922667,13.0922667 C4.65006667,21.5344667 0,32.7578667 0,44.6975333 C0,56.6360667 4.65006667,67.8606 13.0922667,76.3028 C21.5344667,84.745 32.759,89.3950667 44.6986667,89.3950667 C55.4959333,89.3950667 65.7027333,85.5802667 73.8004,78.608 L96.1962,101.0038 C96.8603333,101.667933 97.7296,102 98.6,102 C99.4704,102 100.339667,101.667933 101.0038,101.0038 C102.332067,99.6766667 102.332067,97.5233333 101.0038,96.1962 L78.608,73.8004 Z M71.4952,71.4952 C64.3382,78.6522 54.8204667,82.5950667 44.6975333,82.5950667 C34.5746,82.5950667 25.058,78.6522 17.8987333,71.4952 C10.7428667,64.3382 6.8,54.8204667 6.8,44.6975333 C6.8,34.5746 10.7428667,25.058 17.8998667,17.8987333 C25.058,10.7428667 34.5757333,6.8 44.6975333,6.8 C54.8193333,6.8 64.3370667,10.7428667 71.4952,17.8998667 C78.6522,25.058 82.5950667,34.5757333 82.5950667,44.6986667 C82.5950667,54.8216 78.6522,64.3382 71.4952,71.4952 Z" id="Shape" fill="#FFFFFF" fill-rule="nonzero"></path>
                    <text id="GIF" font-family="Helvetica-Oblique, Helvetica" font-size="37" font-style="italic" font-weight="normal" fill="#FFFFFE">
                        <tspan x="10.1696777" y="57">GIF</tspan>
                    </text>
                </g>
            </g>
        </g>
    </g>
</svg>