<?xml version="1.0" encoding="UTF-8"?>
<svg width="112px" height="112px" viewBox="0 0 112 112" version="1.1" xmlns="http://www.w3.org/2000/svg" xmlns:xlink="http://www.w3.org/1999/xlink">
    <title>info</title>
    <defs>
        <filter x="-12.8%" y="-12.8%" width="125.5%" height="125.5%" filterUnits="objectBoundingBox" id="filter-1">
            <feOffset dx="0" dy="2" in="SourceAlpha" result="shadowOffsetOuter1"></feOffset>
            <feGaussianBlur stdDeviation="2" in="shadowOffsetOuter1" result="shadowBlurOuter1"></feGaussianBlur>
            <feColorMatrix values="0 0 0 0 0   0 0 0 0 0   0 0 0 0 0  0 0 0 0.5 0" type="matrix" in="shadowBlurOuter1" result="shadowMatrixOuter1"></feColorMatrix>
            <feMerge>
                <feMergeNode in="shadowMatrixOuter1"></feMergeNode>
                <feMergeNode in="SourceGraphic"></feMergeNode>
            </feMerge>
        </filter>
    </defs>
    <g id="Magic-Sky-UI-v2" stroke="none" stroke-width="1" fill="none" fill-rule="evenodd">
        <g id="camera-main" transform="translate(-865.000000, -2182.000000)">
            <g id="info" filter="url(#filter-1)" transform="translate(874.000000, 2191.000000)">
                <rect id="Rectangle" x="0" y="0" width="94" height="94"></rect>
                <path d="M46.9531447,41.0003506 C45.2987231,41.0251706 43.9775987,42.3313158 44.0003013,43.919714 L44.0003013,64.0790743 C43.9850019,65.1176728 44.5533716,66.083725 45.4877704,66.6073107 C46.4221692,67.1308964 47.5778308,67.1308964 48.5122296,66.6073107 C49.4466284,66.083725 50.0149981,65.1176728 49.9996987,64.0790743 L49.9996987,43.919714 C50.0108244,43.1412725 49.6932422,42.391662 49.1193148,41.8416846 C48.5453873,41.2917072 47.7640033,40.9882116 46.9532047,41.0003506 L46.9531447,41.0003506 Z" id="Path" stroke="#000000" stroke-width="0.15" fill="#FFFFFF"></path>
                <circle id="Oval" stroke="#000000" stroke-width="0.15" fill="#FFFFFF" cx="47" cy="29" r="3"></circle>
                <path d="M47.5,6 C24.6154179,6 6,24.6154179 6,47.5 C6,70.3845821 24.6154179,89 47.5,89 C70.3845821,89 89,70.3845821 89,47.5 C89,24.6154179 70.3845821,6 47.5,6 Z M47.5,11.9285714 C67.1807821,11.9285714 83.0714286,27.8192179 83.0714286,47.5 C83.0714286,67.1807821 67.1807821,83.0714286 47.5,83.0714286 C27.8192179,83.0714286 11.9285714,67.1807821 11.9285714,47.5 C11.9285714,27.8192179 27.8192179,11.9285714 47.5,11.9285714 Z" id="Shape" stroke="#010101" stroke-width="0.15" fill="#FFFFFF"></path>
            </g>
        </g>
    </g>
</svg>