<?xml version="1.0" encoding="UTF-8"?>
<svg width="70px" height="70px" viewBox="0 0 70 70" version="1.1" xmlns="http://www.w3.org/2000/svg" xmlns:xlink="http://www.w3.org/1999/xlink">
    <title>close</title>
    <g id="Magic-Sky-UI-v2" stroke="none" stroke-width="1" fill="none" fill-rule="evenodd">
        <g id="credits" transform="translate(-129.000000, -177.000000)" fill="#000000" fill-rule="nonzero">
            <path d="M168.945747,212.000875 L197.969198,182.979601 C199.334267,181.614635 199.334267,179.39569 197.969198,178.030724 C196.60413,176.665758 194.385019,176.665758 193.019951,178.030724 L163.9965,207.051999 L134.973049,178.023724 C133.60798,176.658759 131.388869,176.658759 130.023801,178.023724 C128.658733,179.38869 128.658733,181.607635 130.023801,182.972601 L159.047252,212.000875 L130.023801,241.022149 C128.658733,242.387115 128.658733,244.60606 130.023801,245.971026 C130.702835,246.657009 131.59888,247 132.494925,247 C133.39097,247 134.287014,246.657009 134.973049,245.978026 L163.9965,216.949751 L193.019951,245.971026 C193.705985,246.657009 194.60203,247 195.498075,247 C196.39412,247 197.290165,246.657009 197.976199,245.978026 C199.341267,244.61306 199.341267,242.394115 197.976199,241.029149 L168.945747,212.000875 Z" id="close"></path>
        </g>
    </g>
</svg>