<?xml version="1.0" encoding="utf-8"?>
<!-- Generator: Adobe Illustrator 24.0.3, SVG Export Plug-In . SVG Version: 6.00 Build 0)  -->
<svg version="1.1" id="レイヤー_1" xmlns="http://www.w3.org/2000/svg" xmlns:xlink="http://www.w3.org/1999/xlink" x="0px"
	 y="0px" viewBox="0 0 78 78" style="enable-background:new 0 0 78 78;" xml:space="preserve">
<style type="text/css">
	.st0{filter:url(#filter-2);}
	.st1{fill:#FFFFFF;stroke:#000000;stroke-width:0.15;}
</style>
<filter  filterUnits="objectBoundingBox" height="120.2%" id="filter-2" width="120.2%" x="-10.1%" y="-7.3%">
	<feMorphology  in="SourceAlpha" operator="dilate" radius="0.075" result="shadowSpreadOuter1"></feMorphology>
	<feOffset  dx="0" dy="2" in="shadowSpreadOuter1" result="shadowOffsetOuter1"></feOffset>
	<feGaussianBlur  in="shadowOffsetOuter1" result="shadowBlurOuter1" stdDeviation="2"></feGaussianBlur>
	<feComposite  in="shadowBlurOuter1" in2="SourceAlpha" operator="out" result="shadowBlurOuter1"></feComposite>
	<feColorMatrix  in="shadowBlurOuter1" type="matrix" values="0 0 0 0 0   0 0 0 0 0   0 0 0 0 0  0 0 0 0.5 0"></feColorMatrix>
</filter>
<title>close</title>
<g id="Magic-Sky-UI-v2">
	<g id="Sky-Selection" transform="translate(4.000000, -194.000000)">
		<g id="sky-selection-Artists">
			<g id="close">
				<g class="st0">
					<path id="path-1_2_" d="M39.9,231l29-29c1.4-1.4,1.4-3.6,0-4.9c-1.4-1.4-3.6-1.4-4.9,0l-29,29L6,197c-1.4-1.4-3.6-1.4-4.9,0
						c-1.4,1.4-1.4,3.6,0,4.9l29,29L1,260c-1.4,1.4-1.4,3.6,0,4.9c0.7,0.7,1.6,1,2.5,1s1.8-0.3,2.5-1l29-29l29,29
						c0.7,0.7,1.6,1,2.5,1c0.9,0,1.8-0.3,2.5-1c1.4-1.4,1.4-3.6,0-4.9L39.9,231z"/>
				</g>
				<g>
					<path id="path-1_1_" class="st1" d="M39.9,231l29-29c1.4-1.4,1.4-3.6,0-4.9c-1.4-1.4-3.6-1.4-4.9,0l-29,29L6,197
						c-1.4-1.4-3.6-1.4-4.9,0c-1.4,1.4-1.4,3.6,0,4.9l29,29L1,260c-1.4,1.4-1.4,3.6,0,4.9c0.7,0.7,1.6,1,2.5,1s1.8-0.3,2.5-1l29-29
						l29,29c0.7,0.7,1.6,1,2.5,1c0.9,0,1.8-0.3,2.5-1c1.4-1.4,1.4-3.6,0-4.9L39.9,231z"/>
				</g>
			</g>
		</g>
	</g>
</g>
</svg>
