<?xml version="1.0" encoding="utf-8"?>
<!-- Generator: Adobe Illustrator 24.0.3, SVG Export Plug-In . SVG Version: 6.00 Build 0)  -->
<svg version="1.1" id="レイヤー_1" xmlns="http://www.w3.org/2000/svg" xmlns:xlink="http://www.w3.org/1999/xlink" x="0px"
	 y="0px" viewBox="0 0 122 122" style="enable-background:new 0 0 122 122;" xml:space="preserve">
<style type="text/css">
	.st0{fill:#FFFFFF;}
</style>
<title>add icon</title>
<g id="Magic-Sky-UI-v2">
	<g id="sky-selection-1" transform="translate(-431.000000, -2324.000000)">
		<g id="bottom-icons" transform="translate(181.000000, 2332.000000)">
			<g id="add-icon" transform="translate(263.000000, 5.000000)">
				<path class="st0" d="M48,99.2c-28.3,0-51.2-23-51.2-51.2c0-28.3,23-51.2,51.2-51.2c28.3,0,51.2,23,51.2,51.2
					C99.2,76.3,76.3,99.2,48,99.2z M48,3.2C23.3,3.2,3.2,23.3,3.2,48c0,24.7,20.1,44.8,44.8,44.8c24.7,0,44.8-20.1,44.8-44.8
					C92.8,23.3,72.7,3.2,48,3.2z"/>
				<path class="st0" d="M75,51.8H22c-1.8,0-3.2-1.5-3.2-3.2s1.5-3.2,3.2-3.2h53c1.8,0,3.2,1.5,3.2,3.2S76.8,51.8,75,51.8z"/>
				<path class="st0" d="M48.5,78.2c-1.8,0-3.2-1.5-3.2-3.2V22c0-1.8,1.5-3.2,3.2-3.2s3.2,1.5,3.2,3.2v53
					C51.8,76.8,50.3,78.2,48.5,78.2z"/>
			</g>
		</g>
	</g>
</g>
</svg>
