<?xml version="1.0" encoding="utf-8"?>
<!-- Generator: Adobe Illustrator 24.0.3, SVG Export Plug-In . SVG Version: 6.00 Build 0)  -->
<svg version="1.1" id="レイヤー_1" xmlns="http://www.w3.org/2000/svg" xmlns:xlink="http://www.w3.org/1999/xlink" x="0px"
	 y="0px" viewBox="0 0 77 96" style="enable-background:new 0 0 77 96;" xml:space="preserve">
<style type="text/css">
	.st0{fill:#FFFFFF;stroke:#000000;stroke-width:1.500000e-02;}
</style>
<title>noun_change_3322894</title>
<g id="Magic-Sky-UI-v2">
	<g id="Sky-Selection" transform="translate(-1054.000000, -141.000000)">
		<g id="sky-selection-Artists">
			<g id="noun_change_3322894" transform="translate(1058.000000, 143.000000)">
				<g id="Shape">
					<g>
						<path id="path-1" d="M0,24.3c0-2,1.7-3.7,3.7-3.7h52.6L42,6.3c-1.4-1.5-1.4-3.8,0-5.2c1.4-1.4,3.7-1.4,5.2,0l20.7,20.6
							c1.1,1.1,1.4,2.6,0.8,4S66.8,28,65.3,28H3.7C1.7,28,0,26.3,0,24.3L0,24.3z M65.3,59.9H3.7c-1.5,0-2.8,0.9-3.4,2.3
							c-0.6,1.4-0.3,3,0.8,4l20.7,20.6c0.9,1,2.3,1.3,3.6,1c1.3-0.3,2.3-1.3,2.6-2.6c0.3-1.3,0-2.7-1-3.6L12.6,67.3h52.6
							c2,0,3.7-1.7,3.7-3.7S67.3,59.9,65.3,59.9L65.3,59.9z"/>
					</g>
					<g>
						<path id="path-1_1_" class="st0" d="M0,24.3c0-2,1.7-3.7,3.7-3.7h52.6L42,6.3c-1.4-1.5-1.4-3.8,0-5.2c1.4-1.4,3.7-1.4,5.2,0
							l20.7,20.6c1.1,1.1,1.4,2.6,0.8,4S66.8,28,65.3,28H3.7C1.7,28,0,26.3,0,24.3L0,24.3z M65.3,59.9H3.7c-1.5,0-2.8,0.9-3.4,2.3
							c-0.6,1.4-0.3,3,0.8,4l20.7,20.6c0.9,1,2.3,1.3,3.6,1c1.3-0.3,2.3-1.3,2.6-2.6c0.3-1.3,0-2.7-1-3.6L12.6,67.3h52.6
							c2,0,3.7-1.7,3.7-3.7S67.3,59.9,65.3,59.9L65.3,59.9z"/>
					</g>
				</g>
			</g>
		</g>
	</g>
</g>
</svg>
