<?xml version="1.0" encoding="UTF-8"?>
<svg width="151px" height="121px" viewBox="0 0 151 121" version="1.1" xmlns="http://www.w3.org/2000/svg" xmlns:xlink="http://www.w3.org/1999/xlink">
    <title>import button</title>
    <defs>
        <filter x="-9.9%" y="-12.9%" width="119.8%" height="125.7%" filterUnits="objectBoundingBox" id="filter-1">
            <feOffset dx="0" dy="2" in="SourceAlpha" result="shadowOffsetOuter1"></feOffset>
            <feGaussianBlur stdDeviation="2" in="shadowOffsetOuter1" result="shadowBlurOuter1"></feGaussianBlur>
            <feColorMatrix values="0 0 0 0 0   0 0 0 0 0   0 0 0 0 0  0 0 0 0.5 0" type="matrix" in="shadowBlurOuter1" result="shadowMatrixOuter1"></feColorMatrix>
            <feMerge>
                <feMergeNode in="shadowMatrixOuter1"></feMergeNode>
                <feMergeNode in="SourceGraphic"></feMergeNode>
            </feMerge>
        </filter>
    </defs>
    <g id="Magic-Sky-UI-v2" stroke="none" stroke-width="1" fill="none" fill-rule="evenodd">
        <g id="camera-main" transform="translate(-200.000000, -2191.000000)" fill="#FFFFFF" fill-rule="nonzero" stroke="#000000" stroke-width="0.15">
            <g id="import-button" filter="url(#filter-1)" transform="translate(210.000000, 2201.000000)">
                <g id="gallery-icon">
                    <path d="M115.186383,0 L15.8136166,0 C7.07999732,0 0,6.99338699 0,15.620167 L0,85.379833 C0,94.006613 7.07999732,101 15.8136166,101 L115.186383,101 C119.380415,101 123.402671,99.3543086 126.368299,96.424959 C129.333927,93.4956094 131,89.5225588 131,85.379833 L131,15.620167 C131,6.99338699 123.920003,0 115.186383,0 L115.186383,0 Z M15.797803,6.24742792 L115.186383,6.24742792 C120.426555,6.24742792 124.674553,10.444099 124.674553,15.620167 L124.674553,67.9164862 L98.1393047,47.2353851 C96.946766,46.3060675 95.2538017,46.3454146 94.1068324,47.3291061 L66.7809029,70.8062171 L31.4849107,31.4433962 C30.8861307,30.7791462 30.0291035,30.3984859 29.1286818,30.396845 C28.2434034,30.4231235 27.4012454,30.7804307 26.7724529,31.3965357 L6.21473703,53.1241881 L6.21473703,15.6357872 C6.21034775,13.1283838 7.22330795,10.7237961 9.02716363,8.95961961 C10.8310193,7.19544309 13.275329,6.21880995 15.8136166,6.24742792 L15.797803,6.24742792 Z M115.186383,94.7521418 L15.8136166,94.7521418 C10.573445,94.7521418 6.32544664,90.555901 6.32544664,85.379833 L6.32544664,62.2776059 L29.1286818,38.160068 L64.1874698,77.2104856 C65.3396362,78.4927387 67.3227172,78.6182148 68.6310961,77.4916486 L96.2732979,53.7489947 L124.737808,75.8827714 L124.737808,85.379833 C124.737808,87.8763319 123.729542,90.2696801 121.936461,92.029097 C120.143379,93.7885139 117.713744,94.7685765 115.186383,94.7521418 Z" id="Shape"></path>
                    <path d="M64.7956989,44.8888889 C73.3531433,44.8888889 80.2903226,37.9803938 80.2903226,29.4583333 C80.2903226,20.9362728 73.3531433,14.0277778 64.7956989,14.0277778 C56.2382546,14.0277778 49.3010753,20.9362728 49.3010753,29.4583333 C49.3010753,37.9803938 56.2382546,44.8888889 64.7956989,44.8888889 L64.7956989,44.8888889 Z M64.7956989,20.2 C69.9301655,20.2 74.0924731,24.345097 74.0924731,29.4583333 C74.0924731,34.5715696 69.9301655,38.7166667 64.7956989,38.7166667 C59.6612323,38.7166667 55.498873,34.5715696 55.498873,29.4583333 C55.4906879,26.9975279 56.4665293,24.6346986 58.2109062,22.8917439 C59.9552831,21.1487892 62.3246625,20.1691389 64.7956989,20.1691389 L64.7956989,20.2 Z" id="Shape"></path>
                </g>
            </g>
        </g>
    </g>
</svg>