<?xml version="1.0" encoding="UTF-8"?>
<svg width="158px" height="146px" viewBox="0 0 158 146" version="1.1" xmlns="http://www.w3.org/2000/svg" xmlns:xlink="http://www.w3.org/1999/xlink">
    <title>flip</title>
    <defs>
        <filter x="-9.4%" y="-10.3%" width="118.8%" height="120.6%" filterUnits="objectBoundingBox" id="filter-1">
            <feOffset dx="0" dy="2" in="SourceAlpha" result="shadowOffsetOuter1"></feOffset>
            <feGaussianBlur stdDeviation="2" in="shadowOffsetOuter1" result="shadowBlurOuter1"></feGaussianBlur>
            <feColorMatrix values="0 0 0 0 0   0 0 0 0 0   0 0 0 0 0  0 0 0 0.5 0" type="matrix" in="shadowBlurOuter1" result="shadowMatrixOuter1"></feColorMatrix>
            <feMerge>
                <feMergeNode in="shadowMatrixOuter1"></feMergeNode>
                <feMergeNode in="SourceGraphic"></feMergeNode>
            </feMerge>
        </filter>
    </defs>
    <g id="Magic-Sky-UI-v2" stroke="none" stroke-width="1" fill="none" fill-rule="evenodd">
        <g id="camera-main" transform="translate(-886.000000, -2179.000000)" fill="#FFFFFF" fill-rule="nonzero" stroke="#000000" stroke-width="0.15">
            <g id="flip" filter="url(#filter-1)" transform="translate(896.000000, 2189.000000)">
                <g id="camera-flip">
                    <path d="M40.7727273,62.9998031 C40.7727273,78.633302 53.4342273,91.3498917 69,91.3498917 C84.5657727,91.3498917 97.2272727,78.633302 97.2272727,62.9998031 C97.2272727,47.3663043 84.5657727,34.6497145 69,34.6497145 C53.4342273,34.6497145 40.7727273,47.3663043 40.7727273,62.9998031 Z M69,40.9497342 C81.1047955,40.9497342 90.9545455,50.8423401 90.9545455,62.9998031 C90.9545455,75.1572661 81.1047955,85.049872 69,85.049872 C56.8936364,85.049872 47.0454545,75.1572661 47.0454545,62.9998031 C47.0454545,50.8423401 56.8936364,40.9497342 69,40.9497342 Z M128.590909,12.5996456 L69,12.5996456 C67.2671591,12.5996456 65.8636364,14.009275 65.8636364,15.7496555 C65.8636364,17.4900359 67.2671591,18.8996653 69,18.8996653 L128.590909,18.8996653 C130.322182,18.8996653 131.727273,20.3108697 131.727273,22.0496752 L131.727273,103.949931 C131.727273,105.688737 130.322182,107.099941 128.590909,107.099941 L98.5257273,107.099941 L105.717409,99.8769684 C106.942159,98.6468895 106.942159,96.6529333 105.717409,95.4228544 C104.492659,94.1927756 102.507341,94.1927756 101.282591,95.4228544 L88.7371364,108.022894 C87.5123864,109.252973 87.5123864,111.246929 88.7371364,112.477008 L101.282591,125.077047 C101.89575,125.692874 102.697091,126 103.5,126 C104.302909,126 105.10425,125.692874 105.717409,125.077047 C106.942159,123.846968 106.942159,121.853012 105.717409,120.622933 L98.5257273,113.399961 L128.590909,113.399961 C133.780023,113.399961 138,109.161622 138,103.949931 L138,22.0496752 C138,16.8379839 133.780023,12.5996456 128.590909,12.5996456 Z M69,107.099941 L9.40909091,107.099941 C7.67781818,107.099941 6.27272727,105.688737 6.27272727,103.949931 L6.27272727,22.0496752 C6.27272727,20.3108697 7.67781818,18.8996653 9.40909091,18.8996653 L39.4742727,18.8996653 L32.2825909,26.1226379 C31.0578409,27.3527167 31.0578409,29.346673 32.2825909,30.5767518 C32.89575,31.1925787 33.6970909,31.4997047 34.5,31.4997047 C35.3029091,31.4997047 36.10425,31.1925787 36.7158409,30.5767518 L49.2612955,17.9767124 C50.4876136,16.7466336 50.4876136,14.7526774 49.2612955,13.5225985 L36.7158409,0.922559133 C35.4942273,-0.307519711 33.5057727,-0.307519711 32.2825909,0.922559133 C31.0578409,2.15263798 31.0578409,4.14659421 32.2825909,5.37667305 L39.4742727,12.5996456 L9.40909091,12.5996456 C4.21997727,12.5996456 0,16.8379839 0,22.0496752 L0,103.949931 C0,109.161622 4.21997727,113.399961 9.40909091,113.399961 L69,113.399961 C70.7328409,113.399961 72.1363636,111.990331 72.1363636,110.249951 C72.1363636,108.50957 70.7328409,107.099941 69,107.099941 Z" id="Shape"></path>
                </g>
            </g>
        </g>
    </g>
</svg>